<mxfile host="app.diagrams.net" modified="2023-12-01T14:32:04.537Z" agent="Mozilla/5.0 (Windows NT 10.0; Win64; x64) AppleWebKit/537.36 (KHTML, like Gecko) Chrome/119.0.0.0 Safari/537.36" etag="XZaApmCSwN5_JKAS1GSS" version="22.1.5" type="device" pages="3">
  <diagram id="vihMNG-lIPFq3iVxBqbr" name="DiagramaRobustez">
    <mxGraphModel dx="1964" dy="1715" grid="1" gridSize="10" guides="1" tooltips="1" connect="1" arrows="1" fold="1" page="1" pageScale="1" pageWidth="850" pageHeight="1100" math="0" shadow="0">
      <root>
        <mxCell id="0" />
        <mxCell id="1" parent="0" />
        <mxCell id="vWzix96Z64M3fHZLnADR-76" value="" style="rounded=0;whiteSpace=wrap;html=1;fillColor=none;" parent="1" vertex="1">
          <mxGeometry x="-140" y="-40" width="1570" height="1190" as="geometry" />
        </mxCell>
        <mxCell id="C7V8-oqrq3Y0ZI8Kbpaw-1" value="" style="rounded=0;whiteSpace=wrap;html=1;fillColor=none;" parent="1" vertex="1">
          <mxGeometry x="880" y="895" width="320" height="150" as="geometry" />
        </mxCell>
        <mxCell id="C7V8-oqrq3Y0ZI8Kbpaw-2" value="" style="rounded=0;whiteSpace=wrap;html=1;fillColor=none;" parent="1" vertex="1">
          <mxGeometry x="880" y="895" width="330" height="150" as="geometry" />
        </mxCell>
        <mxCell id="S9E5so7f99pqdfq1Ig71-40" value="&lt;div&gt;&lt;br&gt;&lt;/div&gt;&lt;div&gt;&lt;br&gt;&lt;/div&gt;&lt;div&gt;Estado&lt;/div&gt;" style="shape=note;whiteSpace=wrap;html=1;backgroundOutline=1;darkOpacity=0.05;size=11;" parent="1" vertex="1">
          <mxGeometry x="910" y="960" width="75" height="60" as="geometry" />
        </mxCell>
        <mxCell id="S9E5so7f99pqdfq1Ig71-35" style="edgeStyle=orthogonalEdgeStyle;rounded=0;orthogonalLoop=1;jettySize=auto;html=1;" parent="1" source="S9E5so7f99pqdfq1Ig71-34" target="vWzix96Z64M3fHZLnADR-19" edge="1">
          <mxGeometry relative="1" as="geometry">
            <Array as="points">
              <mxPoint x="580" y="780" />
              <mxPoint x="730" y="780" />
            </Array>
          </mxGeometry>
        </mxCell>
        <mxCell id="S9E5so7f99pqdfq1Ig71-34" value="" style="shape=cylinder3;whiteSpace=wrap;html=1;boundedLbl=1;backgroundOutline=1;size=15;rotation=-90;" parent="1" vertex="1">
          <mxGeometry x="550" y="665" width="60" height="80" as="geometry" />
        </mxCell>
        <mxCell id="vWzix96Z64M3fHZLnADR-54" value="" style="rounded=0;whiteSpace=wrap;html=1;fillColor=none;" parent="1" vertex="1">
          <mxGeometry x="650" y="755" width="200" height="295" as="geometry" />
        </mxCell>
        <mxCell id="vWzix96Z64M3fHZLnADR-64" value="" style="rounded=0;whiteSpace=wrap;html=1;fillColor=none;" parent="1" vertex="1">
          <mxGeometry x="650" y="755" width="190" height="295" as="geometry" />
        </mxCell>
        <mxCell id="S9E5so7f99pqdfq1Ig71-30" value="&lt;div&gt;&lt;br&gt;&lt;/div&gt;&lt;div&gt;&lt;br&gt;&lt;/div&gt;&lt;div&gt;Estado&lt;/div&gt;" style="shape=note;whiteSpace=wrap;html=1;backgroundOutline=1;darkOpacity=0.05;size=11;" parent="1" vertex="1">
          <mxGeometry x="710" y="960" width="75" height="60" as="geometry" />
        </mxCell>
        <mxCell id="S9E5so7f99pqdfq1Ig71-24" value="" style="rounded=0;whiteSpace=wrap;html=1;fillColor=none;" parent="1" vertex="1">
          <mxGeometry x="190" y="790" width="280" height="150" as="geometry" />
        </mxCell>
        <mxCell id="S9E5so7f99pqdfq1Ig71-25" value="" style="rounded=0;whiteSpace=wrap;html=1;fillColor=none;" parent="1" vertex="1">
          <mxGeometry x="190" y="790" width="270" height="150" as="geometry" />
        </mxCell>
        <mxCell id="S9E5so7f99pqdfq1Ig71-2" value="" style="rounded=0;whiteSpace=wrap;html=1;fillColor=none;" parent="1" vertex="1">
          <mxGeometry x="230" y="500" width="140" height="270" as="geometry" />
        </mxCell>
        <mxCell id="S9E5so7f99pqdfq1Ig71-3" value="" style="rounded=0;whiteSpace=wrap;html=1;fillColor=none;" parent="1" vertex="1">
          <mxGeometry x="230" y="500" width="150" height="270" as="geometry" />
        </mxCell>
        <mxCell id="tgHYlAVjc7Peqk4h9AsL-1" style="edgeStyle=orthogonalEdgeStyle;rounded=0;orthogonalLoop=1;jettySize=auto;html=1;" parent="1" source="tgHYlAVjc7Peqk4h9AsL-71" target="tgHYlAVjc7Peqk4h9AsL-3" edge="1">
          <mxGeometry relative="1" as="geometry">
            <mxPoint x="400" as="sourcePoint" />
          </mxGeometry>
        </mxCell>
        <mxCell id="S9E5so7f99pqdfq1Ig71-42" value="Datos" style="edgeLabel;html=1;align=center;verticalAlign=middle;resizable=0;points=[];" parent="tgHYlAVjc7Peqk4h9AsL-1" vertex="1" connectable="0">
          <mxGeometry x="0.1833" relative="1" as="geometry">
            <mxPoint y="-1" as="offset" />
          </mxGeometry>
        </mxCell>
        <mxCell id="tgHYlAVjc7Peqk4h9AsL-3" value="&lt;div&gt;Conexion&lt;/div&gt;&lt;div&gt;Datos&lt;/div&gt;" style="shape=umlBoundary;whiteSpace=wrap;html=1;" parent="1" vertex="1">
          <mxGeometry x="340" y="140" width="100" height="80" as="geometry" />
        </mxCell>
        <mxCell id="tgHYlAVjc7Peqk4h9AsL-4" style="edgeStyle=orthogonalEdgeStyle;rounded=0;orthogonalLoop=1;jettySize=auto;html=1;" parent="1" source="S9E5so7f99pqdfq1Ig71-7" target="tgHYlAVjc7Peqk4h9AsL-62" edge="1">
          <mxGeometry relative="1" as="geometry">
            <mxPoint x="310" y="520" as="sourcePoint" />
            <mxPoint x="-120" y="580" as="targetPoint" />
            <Array as="points" />
          </mxGeometry>
        </mxCell>
        <mxCell id="tgHYlAVjc7Peqk4h9AsL-10" style="edgeStyle=orthogonalEdgeStyle;rounded=0;orthogonalLoop=1;jettySize=auto;html=1;" parent="1" source="tgHYlAVjc7Peqk4h9AsL-117" target="tgHYlAVjc7Peqk4h9AsL-105" edge="1">
          <mxGeometry relative="1" as="geometry">
            <mxPoint x="1135" y="772" as="sourcePoint" />
            <mxPoint x="1135" y="835" as="targetPoint" />
          </mxGeometry>
        </mxCell>
        <mxCell id="tgHYlAVjc7Peqk4h9AsL-20" value="&lt;div&gt;Filtro mas&lt;/div&gt;&lt;div&gt;de 4 veces&lt;/div&gt;&lt;div&gt;que directo&lt;/div&gt;" style="text;html=1;align=center;verticalAlign=middle;resizable=0;points=[];autosize=1;strokeColor=none;fillColor=none;" parent="1" vertex="1">
          <mxGeometry x="750" y="870" width="90" height="60" as="geometry" />
        </mxCell>
        <mxCell id="tgHYlAVjc7Peqk4h9AsL-32" value="Parser" style="text;html=1;align=center;verticalAlign=middle;resizable=0;points=[];autosize=1;strokeColor=none;fillColor=none;" parent="1" vertex="1">
          <mxGeometry x="320" y="360" width="60" height="30" as="geometry" />
        </mxCell>
        <mxCell id="tgHYlAVjc7Peqk4h9AsL-69" style="edgeStyle=orthogonalEdgeStyle;rounded=0;orthogonalLoop=1;jettySize=auto;html=1;" parent="1" source="tgHYlAVjc7Peqk4h9AsL-121" target="tgHYlAVjc7Peqk4h9AsL-101" edge="1">
          <mxGeometry relative="1" as="geometry">
            <mxPoint x="295" y="868" as="sourcePoint" />
            <mxPoint x="350" y="868" as="targetPoint" />
          </mxGeometry>
        </mxCell>
        <mxCell id="tgHYlAVjc7Peqk4h9AsL-49" value="Agregador resultados" style="text;html=1;align=center;verticalAlign=middle;resizable=0;points=[];autosize=1;strokeColor=none;fillColor=none;" parent="1" vertex="1">
          <mxGeometry x="65" y="373" width="140" height="30" as="geometry" />
        </mxCell>
        <mxCell id="KQBHp2sGtYCPplzfa_Z2-1" style="edgeStyle=orthogonalEdgeStyle;rounded=0;orthogonalLoop=1;jettySize=auto;html=1;" parent="1" source="tgHYlAVjc7Peqk4h9AsL-62" target="tgHYlAVjc7Peqk4h9AsL-95" edge="1">
          <mxGeometry relative="1" as="geometry">
            <Array as="points">
              <mxPoint x="-70" y="340" />
            </Array>
          </mxGeometry>
        </mxCell>
        <mxCell id="tgHYlAVjc7Peqk4h9AsL-62" value="" style="shape=cylinder3;whiteSpace=wrap;html=1;boundedLbl=1;backgroundOutline=1;size=15;rotation=-90;" parent="1" vertex="1">
          <mxGeometry x="-100" y="540" width="60" height="80" as="geometry" />
        </mxCell>
        <mxCell id="tgHYlAVjc7Peqk4h9AsL-71" value="Cliente" style="shape=umlActor;verticalLabelPosition=bottom;verticalAlign=top;html=1;outlineConnect=0;" parent="1" vertex="1">
          <mxGeometry x="375" y="-10" width="30" height="60" as="geometry" />
        </mxCell>
        <mxCell id="tgHYlAVjc7Peqk4h9AsL-73" value="Coordenadas aeropuertos" style="shape=note;whiteSpace=wrap;html=1;backgroundOutline=1;darkOpacity=0.05;size=11;" parent="1" vertex="1">
          <mxGeometry x="692.5" y="935" width="75" height="60" as="geometry" />
        </mxCell>
        <mxCell id="tgHYlAVjc7Peqk4h9AsL-75" value="&lt;div&gt;Informacion&lt;/div&gt;&lt;div&gt;de vuelos&lt;/div&gt;" style="text;html=1;align=center;verticalAlign=middle;resizable=0;points=[];autosize=1;strokeColor=none;fillColor=none;" parent="1" vertex="1">
          <mxGeometry x="305" y="250" width="90" height="40" as="geometry" />
        </mxCell>
        <mxCell id="tgHYlAVjc7Peqk4h9AsL-95" value="Worker" style="ellipse;shape=umlControl;whiteSpace=wrap;html=1;" parent="1" vertex="1">
          <mxGeometry x="100" y="293" width="70" height="80" as="geometry" />
        </mxCell>
        <mxCell id="S9E5so7f99pqdfq1Ig71-9" style="edgeStyle=orthogonalEdgeStyle;rounded=0;orthogonalLoop=1;jettySize=auto;html=1;" parent="1" source="tgHYlAVjc7Peqk4h9AsL-97" target="S9E5so7f99pqdfq1Ig71-10" edge="1">
          <mxGeometry relative="1" as="geometry" />
        </mxCell>
        <mxCell id="S9E5so7f99pqdfq1Ig71-22" value="&lt;font style=&quot;font-size: 12px;&quot;&gt;Vuelos&lt;/font&gt;" style="edgeLabel;html=1;align=center;verticalAlign=middle;resizable=0;points=[];" parent="S9E5so7f99pqdfq1Ig71-9" vertex="1" connectable="0">
          <mxGeometry x="-0.4831" y="-2" relative="1" as="geometry">
            <mxPoint x="-16" y="29" as="offset" />
          </mxGeometry>
        </mxCell>
        <mxCell id="tgHYlAVjc7Peqk4h9AsL-97" value="Worker" style="ellipse;shape=umlControl;whiteSpace=wrap;html=1;" parent="1" vertex="1">
          <mxGeometry x="355" y="293" width="70" height="80" as="geometry" />
        </mxCell>
        <mxCell id="tgHYlAVjc7Peqk4h9AsL-116" style="edgeStyle=orthogonalEdgeStyle;rounded=0;orthogonalLoop=1;jettySize=auto;html=1;" parent="1" source="tgHYlAVjc7Peqk4h9AsL-114" target="vWzix96Z64M3fHZLnADR-19" edge="1">
          <mxGeometry relative="1" as="geometry">
            <mxPoint x="605" y="815" as="targetPoint" />
            <Array as="points">
              <mxPoint x="720" y="705" />
            </Array>
          </mxGeometry>
        </mxCell>
        <mxCell id="tgHYlAVjc7Peqk4h9AsL-114" value="" style="shape=cylinder3;whiteSpace=wrap;html=1;boundedLbl=1;backgroundOutline=1;size=15;rotation=-90;" parent="1" vertex="1">
          <mxGeometry x="700" y="662" width="60" height="80" as="geometry" />
        </mxCell>
        <mxCell id="tgHYlAVjc7Peqk4h9AsL-115" value="Cola" style="text;html=1;align=center;verticalAlign=middle;resizable=0;points=[];autosize=1;strokeColor=none;fillColor=none;" parent="1" vertex="1">
          <mxGeometry x="710" y="690" width="50" height="30" as="geometry" />
        </mxCell>
        <mxCell id="tgHYlAVjc7Peqk4h9AsL-117" value="" style="shape=cylinder3;whiteSpace=wrap;html=1;boundedLbl=1;backgroundOutline=1;size=15;rotation=-90;" parent="1" vertex="1">
          <mxGeometry x="1100" y="662" width="60" height="80" as="geometry" />
        </mxCell>
        <mxCell id="tgHYlAVjc7Peqk4h9AsL-118" value="Cola" style="text;html=1;align=center;verticalAlign=middle;resizable=0;points=[];autosize=1;strokeColor=none;fillColor=none;" parent="1" vertex="1">
          <mxGeometry x="1115" y="687" width="50" height="30" as="geometry" />
        </mxCell>
        <mxCell id="tgHYlAVjc7Peqk4h9AsL-121" value="" style="shape=cylinder3;whiteSpace=wrap;html=1;boundedLbl=1;backgroundOutline=1;size=15;rotation=-90;" parent="1" vertex="1">
          <mxGeometry x="90" y="740" width="60" height="80" as="geometry" />
        </mxCell>
        <mxCell id="tgHYlAVjc7Peqk4h9AsL-122" value="Cola" style="text;html=1;align=center;verticalAlign=middle;resizable=0;points=[];autosize=1;strokeColor=none;fillColor=none;" parent="1" vertex="1">
          <mxGeometry x="100" y="765" width="50" height="30" as="geometry" />
        </mxCell>
        <mxCell id="tgHYlAVjc7Peqk4h9AsL-125" value="" style="endArrow=classic;html=1;rounded=0;edgeStyle=orthogonalEdgeStyle;" parent="1" source="tgHYlAVjc7Peqk4h9AsL-97" target="tgHYlAVjc7Peqk4h9AsL-114" edge="1">
          <mxGeometry width="50" height="50" relative="1" as="geometry">
            <mxPoint x="420" y="640" as="sourcePoint" />
            <mxPoint x="470" y="590" as="targetPoint" />
            <Array as="points">
              <mxPoint x="390" y="460" />
              <mxPoint x="730" y="460" />
            </Array>
          </mxGeometry>
        </mxCell>
        <mxCell id="S9E5so7f99pqdfq1Ig71-19" value="&lt;div style=&quot;font-size: 12px;&quot;&gt;&lt;font style=&quot;font-size: 12px;&quot;&gt;Coordenadas&lt;/font&gt;&lt;/div&gt;&lt;div style=&quot;font-size: 12px;&quot;&gt;&lt;font style=&quot;font-size: 12px;&quot;&gt;de aeropuertos&lt;/font&gt;&lt;/div&gt;" style="edgeLabel;html=1;align=center;verticalAlign=middle;resizable=0;points=[];" parent="tgHYlAVjc7Peqk4h9AsL-125" vertex="1" connectable="0">
          <mxGeometry x="0.8277" relative="1" as="geometry">
            <mxPoint y="-97" as="offset" />
          </mxGeometry>
        </mxCell>
        <mxCell id="tgHYlAVjc7Peqk4h9AsL-126" value="" style="endArrow=classic;html=1;rounded=0;edgeStyle=orthogonalEdgeStyle;" parent="1" source="S9E5so7f99pqdfq1Ig71-7" target="tgHYlAVjc7Peqk4h9AsL-117" edge="1">
          <mxGeometry width="50" height="50" relative="1" as="geometry">
            <mxPoint x="400" y="370" as="sourcePoint" />
            <mxPoint x="470" y="530" as="targetPoint" />
          </mxGeometry>
        </mxCell>
        <mxCell id="tgHYlAVjc7Peqk4h9AsL-128" value="Cola" style="text;html=1;align=center;verticalAlign=middle;resizable=0;points=[];autosize=1;strokeColor=none;fillColor=none;" parent="1" vertex="1">
          <mxGeometry x="-90" y="565" width="50" height="30" as="geometry" />
        </mxCell>
        <mxCell id="KQBHp2sGtYCPplzfa_Z2-3" value="" style="endArrow=classic;html=1;rounded=0;edgeStyle=orthogonalEdgeStyle;" parent="1" source="tgHYlAVjc7Peqk4h9AsL-101" target="tgHYlAVjc7Peqk4h9AsL-62" edge="1">
          <mxGeometry width="50" height="50" relative="1" as="geometry">
            <mxPoint x="350" y="910" as="sourcePoint" />
            <mxPoint x="400" y="860" as="targetPoint" />
            <Array as="points">
              <mxPoint x="385" y="1070" />
              <mxPoint x="-70" y="1070" />
            </Array>
          </mxGeometry>
        </mxCell>
        <mxCell id="S9E5so7f99pqdfq1Ig71-39" value="&lt;div style=&quot;font-size: 12px;&quot;&gt;&lt;font style=&quot;font-size: 12px;&quot;&gt;2 más rápidos&lt;/font&gt;&lt;/div&gt;&lt;div style=&quot;font-size: 12px;&quot;&gt;&lt;font style=&quot;font-size: 12px;&quot;&gt;por trayecto&lt;/font&gt;&lt;/div&gt;" style="edgeLabel;html=1;align=center;verticalAlign=middle;resizable=0;points=[];" parent="KQBHp2sGtYCPplzfa_Z2-3" vertex="1" connectable="0">
          <mxGeometry x="-0.7738" y="1" relative="1" as="geometry">
            <mxPoint x="-1" y="-33" as="offset" />
          </mxGeometry>
        </mxCell>
        <mxCell id="KQBHp2sGtYCPplzfa_Z2-4" value="" style="endArrow=classic;html=1;rounded=0;edgeStyle=orthogonalEdgeStyle;" parent="1" source="vWzix96Z64M3fHZLnADR-19" target="tgHYlAVjc7Peqk4h9AsL-62" edge="1">
          <mxGeometry width="50" height="50" relative="1" as="geometry">
            <mxPoint x="605" y="770" as="sourcePoint" />
            <mxPoint x="400" y="750" as="targetPoint" />
            <Array as="points">
              <mxPoint x="580" y="855" />
              <mxPoint x="580" y="1070" />
              <mxPoint x="-70" y="1070" />
            </Array>
          </mxGeometry>
        </mxCell>
        <mxCell id="S9E5so7f99pqdfq1Ig71-23" value="&lt;div&gt;&lt;font style=&quot;font-size: 12px;&quot;&gt;Vuelos&lt;/font&gt;&lt;/div&gt;&lt;div&gt;&lt;font style=&quot;font-size: 12px;&quot;&gt;4 veces más&lt;/font&gt;&lt;/div&gt;&lt;div&gt;&lt;font style=&quot;font-size: 12px;&quot;&gt;que directo&lt;/font&gt;&lt;/div&gt;" style="edgeLabel;html=1;align=center;verticalAlign=middle;resizable=0;points=[];" parent="KQBHp2sGtYCPplzfa_Z2-4" vertex="1" connectable="0">
          <mxGeometry x="-0.7778" y="1" relative="1" as="geometry">
            <mxPoint as="offset" />
          </mxGeometry>
        </mxCell>
        <mxCell id="KQBHp2sGtYCPplzfa_Z2-7" value="" style="endArrow=classic;html=1;rounded=0;edgeStyle=orthogonalEdgeStyle;" parent="1" source="tgHYlAVjc7Peqk4h9AsL-3" target="tgHYlAVjc7Peqk4h9AsL-97" edge="1">
          <mxGeometry width="50" height="50" relative="1" as="geometry">
            <mxPoint x="400" y="200" as="sourcePoint" />
            <mxPoint x="400" y="340" as="targetPoint" />
          </mxGeometry>
        </mxCell>
        <mxCell id="KQBHp2sGtYCPplzfa_Z2-8" value="Resaultados consultas" style="text;html=1;align=center;verticalAlign=middle;resizable=0;points=[];autosize=1;strokeColor=none;fillColor=none;" parent="1" vertex="1">
          <mxGeometry x="125" y="-10" width="150" height="30" as="geometry" />
        </mxCell>
        <mxCell id="KQBHp2sGtYCPplzfa_Z2-9" value="Resaultados Queries" style="text;html=1;align=center;verticalAlign=middle;resizable=0;points=[];autosize=1;strokeColor=none;fillColor=none;" parent="1" vertex="1">
          <mxGeometry x="-70" y="310" width="140" height="30" as="geometry" />
        </mxCell>
        <mxCell id="pZK8rin384X-fQ7fw4jk-3" value="Filtro dos mas rapidos" style="text;html=1;align=center;verticalAlign=middle;resizable=0;points=[];autosize=1;strokeColor=none;fillColor=none;" parent="1" vertex="1">
          <mxGeometry x="215" y="900" width="140" height="30" as="geometry" />
        </mxCell>
        <mxCell id="vWzix96Z64M3fHZLnADR-1" value="&lt;div&gt;Conexion&lt;/div&gt;&lt;div&gt;Resultados&lt;/div&gt;" style="shape=umlBoundary;whiteSpace=wrap;html=1;" parent="1" vertex="1">
          <mxGeometry x="85" y="140" width="100" height="80" as="geometry" />
        </mxCell>
        <mxCell id="vWzix96Z64M3fHZLnADR-2" value="" style="endArrow=classic;html=1;rounded=0;edgeStyle=orthogonalEdgeStyle;" parent="1" source="tgHYlAVjc7Peqk4h9AsL-95" target="vWzix96Z64M3fHZLnADR-1" edge="1">
          <mxGeometry width="50" height="50" relative="1" as="geometry">
            <mxPoint x="100" y="410" as="sourcePoint" />
            <mxPoint x="135" y="200" as="targetPoint" />
          </mxGeometry>
        </mxCell>
        <mxCell id="S9E5so7f99pqdfq1Ig71-41" value="&lt;div&gt;Resaultado&lt;/div&gt;&lt;div&gt;consultas&lt;br&gt; &lt;/div&gt;" style="edgeLabel;html=1;align=center;verticalAlign=middle;resizable=0;points=[];" parent="vWzix96Z64M3fHZLnADR-2" vertex="1" connectable="0">
          <mxGeometry x="-0.0822" y="1" relative="1" as="geometry">
            <mxPoint as="offset" />
          </mxGeometry>
        </mxCell>
        <mxCell id="vWzix96Z64M3fHZLnADR-3" value="" style="endArrow=classic;html=1;rounded=0;edgeStyle=orthogonalEdgeStyle;" parent="1" source="vWzix96Z64M3fHZLnADR-1" target="tgHYlAVjc7Peqk4h9AsL-71" edge="1">
          <mxGeometry width="50" height="50" relative="1" as="geometry">
            <mxPoint x="140" y="110" as="sourcePoint" />
            <mxPoint x="370" y="-30" as="targetPoint" />
            <Array as="points">
              <mxPoint x="135" y="20" />
            </Array>
          </mxGeometry>
        </mxCell>
        <mxCell id="vWzix96Z64M3fHZLnADR-5" value="MasDe3Escalas" style="text;html=1;align=center;verticalAlign=middle;resizable=0;points=[];autosize=1;strokeColor=none;fillColor=none;" parent="1" vertex="1">
          <mxGeometry x="80" y="550" width="110" height="30" as="geometry" />
        </mxCell>
        <mxCell id="vWzix96Z64M3fHZLnADR-6" value="" style="endArrow=classic;html=1;rounded=0;edgeStyle=orthogonalEdgeStyle;" parent="1" source="S9E5so7f99pqdfq1Ig71-7" target="tgHYlAVjc7Peqk4h9AsL-121" edge="1">
          <mxGeometry width="50" height="50" relative="1" as="geometry">
            <mxPoint x="400" y="580" as="sourcePoint" />
            <mxPoint x="150" y="700" as="targetPoint" />
            <Array as="points">
              <mxPoint x="120" y="580" />
            </Array>
          </mxGeometry>
        </mxCell>
        <mxCell id="vWzix96Z64M3fHZLnADR-8" value="&lt;div&gt;Trayecto&lt;/div&gt;&lt;div&gt;con tarifa&lt;/div&gt;" style="text;html=1;align=center;verticalAlign=middle;resizable=0;points=[];autosize=1;strokeColor=none;fillColor=none;" parent="1" vertex="1">
          <mxGeometry x="1060" y="595" width="80" height="40" as="geometry" />
        </mxCell>
        <mxCell id="vWzix96Z64M3fHZLnADR-19" value="Worker" style="ellipse;shape=umlControl;whiteSpace=wrap;html=1;" parent="1" vertex="1">
          <mxGeometry x="695" y="815" width="70" height="80" as="geometry" />
        </mxCell>
        <mxCell id="vWzix96Z64M3fHZLnADR-28" value="Filtro por promedio" style="text;html=1;align=center;verticalAlign=middle;resizable=0;points=[];autosize=1;strokeColor=none;fillColor=none;" parent="1" vertex="1">
          <mxGeometry x="985" y="995" width="120" height="30" as="geometry" />
        </mxCell>
        <mxCell id="vWzix96Z64M3fHZLnADR-33" value="&lt;div&gt;Promedio&lt;/div&gt;&lt;div&gt;precios&lt;/div&gt;" style="text;html=1;align=center;verticalAlign=middle;resizable=0;points=[];autosize=1;strokeColor=none;fillColor=none;" parent="1" vertex="1">
          <mxGeometry x="1125" y="622" width="80" height="40" as="geometry" />
        </mxCell>
        <mxCell id="vWzix96Z64M3fHZLnADR-40" value="" style="endArrow=classic;html=1;rounded=0;edgeStyle=orthogonalEdgeStyle;" parent="1" source="tgHYlAVjc7Peqk4h9AsL-105" target="tgHYlAVjc7Peqk4h9AsL-62" edge="1">
          <mxGeometry width="50" height="50" relative="1" as="geometry">
            <mxPoint x="1140" y="925" as="sourcePoint" />
            <mxPoint x="710" y="770" as="targetPoint" />
            <Array as="points">
              <mxPoint x="1130" y="1070" />
              <mxPoint x="-70" y="1070" />
            </Array>
          </mxGeometry>
        </mxCell>
        <mxCell id="S9E5so7f99pqdfq1Ig71-38" value="&lt;div style=&quot;font-size: 12px;&quot;&gt;&lt;font style=&quot;font-size: 12px;&quot;&gt;Promedio y&lt;/font&gt;&lt;/div&gt;&lt;div style=&quot;font-size: 12px;&quot;&gt;&lt;font style=&quot;font-size: 12px;&quot;&gt;máx por trayecto&lt;/font&gt;&lt;/div&gt;" style="edgeLabel;html=1;align=center;verticalAlign=middle;resizable=0;points=[];" parent="vWzix96Z64M3fHZLnADR-40" vertex="1" connectable="0">
          <mxGeometry x="-0.8435" relative="1" as="geometry">
            <mxPoint x="-1" as="offset" />
          </mxGeometry>
        </mxCell>
        <mxCell id="vWzix96Z64M3fHZLnADR-56" value="" style="endArrow=classic;html=1;rounded=0;edgeStyle=orthogonalEdgeStyle;" parent="1" source="tgHYlAVjc7Peqk4h9AsL-101" target="vWzix96Z64M3fHZLnADR-68" edge="1">
          <mxGeometry width="50" height="50" relative="1" as="geometry">
            <mxPoint x="443.9899999999998" y="864" as="sourcePoint" />
            <mxPoint x="1660" y="1200" as="targetPoint" />
            <Array as="points">
              <mxPoint x="530" y="860" />
              <mxPoint x="530" y="1110" />
              <mxPoint x="1360" y="1110" />
              <mxPoint x="1360" y="333" />
            </Array>
          </mxGeometry>
        </mxCell>
        <mxCell id="vWzix96Z64M3fHZLnADR-57" value="" style="endArrow=classic;html=1;rounded=0;edgeStyle=orthogonalEdgeStyle;" parent="1" source="vWzix96Z64M3fHZLnADR-19" target="vWzix96Z64M3fHZLnADR-68" edge="1">
          <mxGeometry width="50" height="50" relative="1" as="geometry">
            <mxPoint x="770" y="740" as="sourcePoint" />
            <mxPoint x="1660" y="1200" as="targetPoint" />
            <Array as="points">
              <mxPoint x="1360" y="860" />
              <mxPoint x="1360" y="333" />
            </Array>
          </mxGeometry>
        </mxCell>
        <mxCell id="vWzix96Z64M3fHZLnADR-66" value="" style="endArrow=classic;html=1;rounded=0;edgeStyle=orthogonalEdgeStyle;" parent="1" source="tgHYlAVjc7Peqk4h9AsL-105" target="vWzix96Z64M3fHZLnADR-68" edge="1">
          <mxGeometry width="50" height="50" relative="1" as="geometry">
            <mxPoint x="1020" y="970" as="sourcePoint" />
            <mxPoint x="1660" y="1200" as="targetPoint" />
            <Array as="points">
              <mxPoint x="1360" y="965" />
              <mxPoint x="1360" y="333" />
            </Array>
          </mxGeometry>
        </mxCell>
        <mxCell id="vWzix96Z64M3fHZLnADR-70" style="edgeStyle=orthogonalEdgeStyle;rounded=0;orthogonalLoop=1;jettySize=auto;html=1;" parent="1" source="vWzix96Z64M3fHZLnADR-68" target="tgHYlAVjc7Peqk4h9AsL-97" edge="1">
          <mxGeometry relative="1" as="geometry">
            <mxPoint x="430" y="340" as="targetPoint" />
          </mxGeometry>
        </mxCell>
        <mxCell id="vWzix96Z64M3fHZLnADR-68" value="" style="shape=cylinder3;whiteSpace=wrap;html=1;boundedLbl=1;backgroundOutline=1;size=15;rotation=-90;" parent="1" vertex="1">
          <mxGeometry x="725" y="293" width="60" height="80" as="geometry" />
        </mxCell>
        <mxCell id="vWzix96Z64M3fHZLnADR-69" value="Cola" style="text;html=1;align=center;verticalAlign=middle;resizable=0;points=[];autosize=1;strokeColor=none;fillColor=none;" parent="1" vertex="1">
          <mxGeometry x="735" y="318" width="50" height="30" as="geometry" />
        </mxCell>
        <mxCell id="vWzix96Z64M3fHZLnADR-71" value="Ready" style="text;html=1;align=center;verticalAlign=middle;resizable=0;points=[];autosize=1;strokeColor=none;fillColor=none;" parent="1" vertex="1">
          <mxGeometry x="555" y="330" width="50" height="30" as="geometry" />
        </mxCell>
        <mxCell id="vWzix96Z64M3fHZLnADR-75" value="Ready" style="text;html=1;align=center;verticalAlign=middle;resizable=0;points=[];autosize=1;strokeColor=none;fillColor=none;" parent="1" vertex="1">
          <mxGeometry x="530" y="1110" width="50" height="30" as="geometry" />
        </mxCell>
        <mxCell id="-u4wZpVQqWa6Jxgg2jf3-8" value="Ready" style="text;html=1;align=center;verticalAlign=middle;resizable=0;points=[];autosize=1;strokeColor=none;fillColor=none;" parent="1" vertex="1">
          <mxGeometry x="1310" y="935" width="50" height="30" as="geometry" />
        </mxCell>
        <mxCell id="-u4wZpVQqWa6Jxgg2jf3-10" value="Ready" style="text;html=1;align=center;verticalAlign=middle;resizable=0;points=[];autosize=1;strokeColor=none;fillColor=none;" parent="1" vertex="1">
          <mxGeometry x="950" y="330" width="50" height="30" as="geometry" />
        </mxCell>
        <mxCell id="-u4wZpVQqWa6Jxgg2jf3-12" value="&lt;div&gt;Coordenadas de&lt;/div&gt;&lt;div&gt;aeropuertos&lt;/div&gt;" style="text;html=1;align=center;verticalAlign=middle;resizable=0;points=[];autosize=1;strokeColor=none;fillColor=none;" parent="1" vertex="1">
          <mxGeometry x="380" y="220" width="120" height="40" as="geometry" />
        </mxCell>
        <mxCell id="SsLDtULBoxzdfWxcPcWZ-1" value="" style="edgeStyle=orthogonalEdgeStyle;rounded=0;orthogonalLoop=1;jettySize=auto;html=1;" parent="1" source="vWzix96Z64M3fHZLnADR-19" target="tgHYlAVjc7Peqk4h9AsL-73" edge="1">
          <mxGeometry relative="1" as="geometry">
            <mxPoint x="730" y="925" as="sourcePoint" />
            <mxPoint x="730" y="935" as="targetPoint" />
          </mxGeometry>
        </mxCell>
        <mxCell id="C7V8-oqrq3Y0ZI8Kbpaw-4" style="edgeStyle=orthogonalEdgeStyle;rounded=0;orthogonalLoop=1;jettySize=auto;html=1;" parent="1" source="tgHYlAVjc7Peqk4h9AsL-105" target="S9E5so7f99pqdfq1Ig71-29" edge="1">
          <mxGeometry relative="1" as="geometry" />
        </mxCell>
        <mxCell id="tgHYlAVjc7Peqk4h9AsL-105" value="Worker" style="ellipse;shape=umlControl;whiteSpace=wrap;html=1;" parent="1" vertex="1">
          <mxGeometry x="1095" y="925" width="70" height="80" as="geometry" />
        </mxCell>
        <mxCell id="S9E5so7f99pqdfq1Ig71-28" style="edgeStyle=orthogonalEdgeStyle;rounded=0;orthogonalLoop=1;jettySize=auto;html=1;" parent="1" source="tgHYlAVjc7Peqk4h9AsL-101" target="S9E5so7f99pqdfq1Ig71-26" edge="1">
          <mxGeometry relative="1" as="geometry" />
        </mxCell>
        <mxCell id="tgHYlAVjc7Peqk4h9AsL-101" value="Worker" style="ellipse;shape=umlControl;whiteSpace=wrap;html=1;" parent="1" vertex="1">
          <mxGeometry x="350" y="820" width="70" height="80" as="geometry" />
        </mxCell>
        <mxCell id="S9E5so7f99pqdfq1Ig71-4" value="demux" style="text;html=1;align=center;verticalAlign=middle;resizable=0;points=[];autosize=1;strokeColor=none;fillColor=none;" parent="1" vertex="1">
          <mxGeometry x="235" y="620" width="60" height="30" as="geometry" />
        </mxCell>
        <mxCell id="S9E5so7f99pqdfq1Ig71-6" style="edgeStyle=orthogonalEdgeStyle;rounded=0;orthogonalLoop=1;jettySize=auto;html=1;" parent="1" source="S9E5so7f99pqdfq1Ig71-7" target="S9E5so7f99pqdfq1Ig71-8" edge="1">
          <mxGeometry relative="1" as="geometry" />
        </mxCell>
        <mxCell id="S9E5so7f99pqdfq1Ig71-20" style="edgeStyle=orthogonalEdgeStyle;rounded=0;orthogonalLoop=1;jettySize=auto;html=1;" parent="1" source="S9E5so7f99pqdfq1Ig71-7" target="vWzix96Z64M3fHZLnADR-68" edge="1">
          <mxGeometry relative="1" as="geometry">
            <Array as="points">
              <mxPoint x="530" y="580" />
              <mxPoint x="530" y="1110" />
              <mxPoint x="1360" y="1110" />
              <mxPoint x="1360" y="333" />
            </Array>
          </mxGeometry>
        </mxCell>
        <mxCell id="S9E5so7f99pqdfq1Ig71-32" style="edgeStyle=orthogonalEdgeStyle;rounded=0;orthogonalLoop=1;jettySize=auto;html=1;" parent="1" source="S9E5so7f99pqdfq1Ig71-7" target="S9E5so7f99pqdfq1Ig71-34" edge="1">
          <mxGeometry relative="1" as="geometry">
            <Array as="points">
              <mxPoint x="580" y="580" />
            </Array>
          </mxGeometry>
        </mxCell>
        <mxCell id="S9E5so7f99pqdfq1Ig71-36" value="&lt;div style=&quot;font-size: 12px;&quot;&gt;&lt;font style=&quot;font-size: 12px;&quot;&gt;Distancia&lt;/font&gt;&lt;/div&gt;&lt;div style=&quot;font-size: 12px;&quot;&gt;&lt;font style=&quot;font-size: 12px;&quot;&gt;de vuelos&lt;/font&gt;&lt;/div&gt;" style="edgeLabel;html=1;align=center;verticalAlign=middle;resizable=0;points=[];" parent="S9E5so7f99pqdfq1Ig71-32" vertex="1" connectable="0">
          <mxGeometry x="0.7092" relative="1" as="geometry">
            <mxPoint y="1" as="offset" />
          </mxGeometry>
        </mxCell>
        <mxCell id="S9E5so7f99pqdfq1Ig71-7" value="Worker" style="ellipse;shape=umlControl;whiteSpace=wrap;html=1;" parent="1" vertex="1">
          <mxGeometry x="265" y="540" width="70" height="80" as="geometry" />
        </mxCell>
        <mxCell id="S9E5so7f99pqdfq1Ig71-8" value="Estado" style="shape=note;whiteSpace=wrap;html=1;backgroundOutline=1;darkOpacity=0.05;size=11;" parent="1" vertex="1">
          <mxGeometry x="262.5" y="670" width="75" height="60" as="geometry" />
        </mxCell>
        <mxCell id="S9E5so7f99pqdfq1Ig71-14" style="edgeStyle=orthogonalEdgeStyle;rounded=0;orthogonalLoop=1;jettySize=auto;html=1;" parent="1" source="S9E5so7f99pqdfq1Ig71-10" target="S9E5so7f99pqdfq1Ig71-7" edge="1">
          <mxGeometry relative="1" as="geometry" />
        </mxCell>
        <mxCell id="S9E5so7f99pqdfq1Ig71-10" value="" style="shape=cylinder3;whiteSpace=wrap;html=1;boundedLbl=1;backgroundOutline=1;size=15;rotation=-90;" parent="1" vertex="1">
          <mxGeometry x="270" y="403" width="60" height="80" as="geometry" />
        </mxCell>
        <mxCell id="S9E5so7f99pqdfq1Ig71-17" value="Cola" style="text;html=1;align=center;verticalAlign=middle;resizable=0;points=[];autosize=1;strokeColor=none;fillColor=none;" parent="1" vertex="1">
          <mxGeometry x="280" y="430" width="50" height="30" as="geometry" />
        </mxCell>
        <mxCell id="S9E5so7f99pqdfq1Ig71-26" value="Estado" style="shape=note;whiteSpace=wrap;html=1;backgroundOutline=1;darkOpacity=0.05;size=11;" parent="1" vertex="1">
          <mxGeometry x="227.5" y="830" width="75" height="60" as="geometry" />
        </mxCell>
        <mxCell id="S9E5so7f99pqdfq1Ig71-29" value="Precios por trayecto" style="shape=note;whiteSpace=wrap;html=1;backgroundOutline=1;darkOpacity=0.05;size=11;" parent="1" vertex="1">
          <mxGeometry x="925" y="935" width="75" height="60" as="geometry" />
        </mxCell>
        <mxCell id="S9E5so7f99pqdfq1Ig71-31" value="Ready" style="text;html=1;align=center;verticalAlign=middle;resizable=0;points=[];autosize=1;strokeColor=none;fillColor=none;" parent="1" vertex="1">
          <mxGeometry x="1310" y="835" width="50" height="30" as="geometry" />
        </mxCell>
        <mxCell id="S9E5so7f99pqdfq1Ig71-33" value="Cola" style="text;html=1;align=center;verticalAlign=middle;resizable=0;points=[];autosize=1;strokeColor=none;fillColor=none;" parent="1" vertex="1">
          <mxGeometry x="560" y="690" width="50" height="30" as="geometry" />
        </mxCell>
      </root>
    </mxGraphModel>
  </diagram>
  <diagram id="lLsqf-L1oh-no75bK6xV" name="DiagramaDespliegue">
    <mxGraphModel dx="1114" dy="615" grid="1" gridSize="10" guides="1" tooltips="1" connect="1" arrows="1" fold="1" page="1" pageScale="1" pageWidth="827" pageHeight="1169" math="0" shadow="0">
      <root>
        <mxCell id="0" />
        <mxCell id="1" parent="0" />
        <mxCell id="jXJAcX1VJpIUJrTiti9_-1" value="«Process»&lt;br&gt;&lt;b&gt;OutputFilter&lt;br&gt;&lt;/b&gt;" style="html=1;dropTarget=0;whiteSpace=wrap;" vertex="1" parent="1">
          <mxGeometry x="150" y="350" width="180" height="90" as="geometry" />
        </mxCell>
        <mxCell id="jXJAcX1VJpIUJrTiti9_-2" value="" style="shape=module;jettyWidth=8;jettyHeight=4;" vertex="1" parent="jXJAcX1VJpIUJrTiti9_-1">
          <mxGeometry x="1" width="20" height="20" relative="1" as="geometry">
            <mxPoint x="-27" y="7" as="offset" />
          </mxGeometry>
        </mxCell>
        <mxCell id="jXJAcX1VJpIUJrTiti9_-3" style="edgeStyle=orthogonalEdgeStyle;rounded=0;orthogonalLoop=1;jettySize=auto;html=1;exitX=0.5;exitY=0;exitDx=0;exitDy=0;entryX=0.5;entryY=1;entryDx=0;entryDy=0;" edge="1" parent="1" source="jXJAcX1VJpIUJrTiti9_-5" target="jXJAcX1VJpIUJrTiti9_-17">
          <mxGeometry relative="1" as="geometry" />
        </mxCell>
        <mxCell id="jXJAcX1VJpIUJrTiti9_-4" style="edgeStyle=orthogonalEdgeStyle;rounded=0;orthogonalLoop=1;jettySize=auto;html=1;exitX=0.5;exitY=0;exitDx=0;exitDy=0;entryX=0.5;entryY=1;entryDx=0;entryDy=0;" edge="1" parent="1" source="jXJAcX1VJpIUJrTiti9_-5" target="jXJAcX1VJpIUJrTiti9_-19">
          <mxGeometry relative="1" as="geometry">
            <Array as="points">
              <mxPoint x="510" y="520" />
              <mxPoint x="780" y="520" />
            </Array>
          </mxGeometry>
        </mxCell>
        <mxCell id="jXJAcX1VJpIUJrTiti9_-5" value="«Process»&lt;br&gt;&lt;b&gt;RabbitMQ&lt;br&gt;&lt;/b&gt;" style="html=1;dropTarget=0;whiteSpace=wrap;" vertex="1" parent="1">
          <mxGeometry x="420" y="590" width="180" height="90" as="geometry" />
        </mxCell>
        <mxCell id="jXJAcX1VJpIUJrTiti9_-6" value="" style="shape=module;jettyWidth=8;jettyHeight=4;" vertex="1" parent="jXJAcX1VJpIUJrTiti9_-5">
          <mxGeometry x="1" width="20" height="20" relative="1" as="geometry">
            <mxPoint x="-27" y="7" as="offset" />
          </mxGeometry>
        </mxCell>
        <mxCell id="jXJAcX1VJpIUJrTiti9_-7" value="" style="endArrow=classic;html=1;rounded=0;startArrow=classic;startFill=1;entryX=0.5;entryY=0;entryDx=0;entryDy=0;exitX=0.5;exitY=1;exitDx=0;exitDy=0;" edge="1" parent="1" source="jXJAcX1VJpIUJrTiti9_-1" target="jXJAcX1VJpIUJrTiti9_-5">
          <mxGeometry width="50" height="50" relative="1" as="geometry">
            <mxPoint x="500" y="410" as="sourcePoint" />
            <mxPoint x="500" y="540" as="targetPoint" />
            <Array as="points">
              <mxPoint x="240" y="520" />
              <mxPoint x="510" y="520" />
            </Array>
          </mxGeometry>
        </mxCell>
        <mxCell id="jXJAcX1VJpIUJrTiti9_-8" value="" style="endArrow=classic;html=1;rounded=0;entryX=1;entryY=0.5;entryDx=0;entryDy=0;startArrow=classic;startFill=1;exitX=0;exitY=0.5;exitDx=0;exitDy=0;" edge="1" parent="1" source="jXJAcX1VJpIUJrTiti9_-11" target="jXJAcX1VJpIUJrTiti9_-5">
          <mxGeometry width="50" height="50" relative="1" as="geometry">
            <mxPoint x="920" y="640" as="sourcePoint" />
            <mxPoint x="630" y="640" as="targetPoint" />
          </mxGeometry>
        </mxCell>
        <mxCell id="jXJAcX1VJpIUJrTiti9_-9" value="«Process»&lt;br&gt;&lt;b&gt;DistanceFIlter&lt;br&gt;&lt;/b&gt;" style="html=1;dropTarget=0;whiteSpace=wrap;" vertex="1" parent="1">
          <mxGeometry x="60" y="590" width="180" height="90" as="geometry" />
        </mxCell>
        <mxCell id="jXJAcX1VJpIUJrTiti9_-10" value="" style="shape=module;jettyWidth=8;jettyHeight=4;" vertex="1" parent="jXJAcX1VJpIUJrTiti9_-9">
          <mxGeometry x="1" width="20" height="20" relative="1" as="geometry">
            <mxPoint x="-27" y="7" as="offset" />
          </mxGeometry>
        </mxCell>
        <mxCell id="jXJAcX1VJpIUJrTiti9_-11" value="«Process»&lt;br&gt;&lt;b&gt;AvgFilter&lt;br&gt;&lt;/b&gt;" style="html=1;dropTarget=0;whiteSpace=wrap;" vertex="1" parent="1">
          <mxGeometry x="790" y="590" width="180" height="90" as="geometry" />
        </mxCell>
        <mxCell id="jXJAcX1VJpIUJrTiti9_-12" value="" style="shape=module;jettyWidth=8;jettyHeight=4;" vertex="1" parent="jXJAcX1VJpIUJrTiti9_-11">
          <mxGeometry x="1" width="20" height="20" relative="1" as="geometry">
            <mxPoint x="-27" y="7" as="offset" />
          </mxGeometry>
        </mxCell>
        <mxCell id="jXJAcX1VJpIUJrTiti9_-13" value="«Process»&lt;br&gt;&lt;b&gt;FastestFilter&lt;br&gt;&lt;/b&gt;" style="html=1;dropTarget=0;whiteSpace=wrap;" vertex="1" parent="1">
          <mxGeometry x="420" y="780" width="180" height="90" as="geometry" />
        </mxCell>
        <mxCell id="jXJAcX1VJpIUJrTiti9_-14" value="" style="shape=module;jettyWidth=8;jettyHeight=4;" vertex="1" parent="jXJAcX1VJpIUJrTiti9_-13">
          <mxGeometry x="1" width="20" height="20" relative="1" as="geometry">
            <mxPoint x="-27" y="7" as="offset" />
          </mxGeometry>
        </mxCell>
        <mxCell id="jXJAcX1VJpIUJrTiti9_-15" value="" style="endArrow=classic;html=1;rounded=0;startArrow=classic;startFill=1;exitX=0.5;exitY=1;exitDx=0;exitDy=0;entryX=0.5;entryY=0;entryDx=0;entryDy=0;" edge="1" parent="1" source="jXJAcX1VJpIUJrTiti9_-5" target="jXJAcX1VJpIUJrTiti9_-13">
          <mxGeometry width="50" height="50" relative="1" as="geometry">
            <mxPoint x="510" y="760" as="sourcePoint" />
            <mxPoint x="510" y="970" as="targetPoint" />
            <Array as="points" />
          </mxGeometry>
        </mxCell>
        <mxCell id="jXJAcX1VJpIUJrTiti9_-16" value="" style="endArrow=classic;startArrow=classic;html=1;rounded=0;exitX=1.006;exitY=0.594;exitDx=0;exitDy=0;exitPerimeter=0;entryX=0.006;entryY=0.594;entryDx=0;entryDy=0;entryPerimeter=0;" edge="1" parent="1" source="jXJAcX1VJpIUJrTiti9_-9" target="jXJAcX1VJpIUJrTiti9_-5">
          <mxGeometry width="50" height="50" relative="1" as="geometry">
            <mxPoint x="530" y="570" as="sourcePoint" />
            <mxPoint x="580" y="520" as="targetPoint" />
          </mxGeometry>
        </mxCell>
        <mxCell id="jXJAcX1VJpIUJrTiti9_-17" value="«Process»&lt;br&gt;&lt;b&gt;Demux&lt;br&gt;&lt;/b&gt;" style="html=1;dropTarget=0;whiteSpace=wrap;" vertex="1" parent="1">
          <mxGeometry x="420" y="350" width="180" height="90" as="geometry" />
        </mxCell>
        <mxCell id="jXJAcX1VJpIUJrTiti9_-18" value="" style="shape=module;jettyWidth=8;jettyHeight=4;" vertex="1" parent="jXJAcX1VJpIUJrTiti9_-17">
          <mxGeometry x="1" width="20" height="20" relative="1" as="geometry">
            <mxPoint x="-27" y="7" as="offset" />
          </mxGeometry>
        </mxCell>
        <mxCell id="jXJAcX1VJpIUJrTiti9_-19" value="«Process»&lt;br&gt;&lt;b&gt;InputFilter&lt;br&gt;&lt;/b&gt;" style="html=1;dropTarget=0;whiteSpace=wrap;" vertex="1" parent="1">
          <mxGeometry x="690" y="350" width="180" height="90" as="geometry" />
        </mxCell>
        <mxCell id="jXJAcX1VJpIUJrTiti9_-20" value="" style="shape=module;jettyWidth=8;jettyHeight=4;" vertex="1" parent="jXJAcX1VJpIUJrTiti9_-19">
          <mxGeometry x="1" width="20" height="20" relative="1" as="geometry">
            <mxPoint x="-27" y="7" as="offset" />
          </mxGeometry>
        </mxCell>
        <mxCell id="jXJAcX1VJpIUJrTiti9_-21" style="edgeStyle=orthogonalEdgeStyle;rounded=0;orthogonalLoop=1;jettySize=auto;html=1;exitX=0.5;exitY=0;exitDx=0;exitDy=0;entryX=0.75;entryY=1;entryDx=0;entryDy=0;" edge="1" parent="1" source="jXJAcX1VJpIUJrTiti9_-22" target="jXJAcX1VJpIUJrTiti9_-5">
          <mxGeometry relative="1" as="geometry" />
        </mxCell>
        <mxCell id="jXJAcX1VJpIUJrTiti9_-22" value="«Process»&lt;br&gt;&lt;b&gt;Heartbeater&lt;br&gt;&lt;/b&gt;" style="html=1;dropTarget=0;whiteSpace=wrap;" vertex="1" parent="1">
          <mxGeometry x="740" y="780" width="180" height="90" as="geometry" />
        </mxCell>
        <mxCell id="jXJAcX1VJpIUJrTiti9_-23" value="" style="shape=module;jettyWidth=8;jettyHeight=4;" vertex="1" parent="jXJAcX1VJpIUJrTiti9_-22">
          <mxGeometry x="1" width="20" height="20" relative="1" as="geometry">
            <mxPoint x="-27" y="7" as="offset" />
          </mxGeometry>
        </mxCell>
        <mxCell id="jXJAcX1VJpIUJrTiti9_-24" value="" style="rounded=0;whiteSpace=wrap;html=1;fillColor=none;" vertex="1" parent="1">
          <mxGeometry x="40" y="320" width="950" height="570" as="geometry" />
        </mxCell>
      </root>
    </mxGraphModel>
  </diagram>
  <diagram id="3jbJNHuE1rvyw24igNSj" name="DiagramaPaquetes">
    <mxGraphModel dx="1941" dy="1784" grid="1" gridSize="10" guides="1" tooltips="1" connect="1" arrows="1" fold="1" page="1" pageScale="1" pageWidth="827" pageHeight="1169" math="0" shadow="0">
      <root>
        <mxCell id="0" />
        <mxCell id="1" parent="0" />
        <mxCell id="PZ-YgTpOUl17oD9k1CXw-1" style="edgeStyle=orthogonalEdgeStyle;rounded=0;orthogonalLoop=1;jettySize=auto;html=1;exitX=0.5;exitY=1;exitDx=0;exitDy=0;exitPerimeter=0;dashed=1;dashPattern=12 12;" edge="1" parent="1" source="PZ-YgTpOUl17oD9k1CXw-4">
          <mxGeometry relative="1" as="geometry">
            <mxPoint x="480" y="310" as="targetPoint" />
            <Array as="points">
              <mxPoint x="115" y="260" />
              <mxPoint x="480" y="260" />
            </Array>
          </mxGeometry>
        </mxCell>
        <mxCell id="PZ-YgTpOUl17oD9k1CXw-2" style="edgeStyle=orthogonalEdgeStyle;rounded=0;orthogonalLoop=1;jettySize=auto;html=1;exitX=0;exitY=0;exitDx=40;exitDy=0;exitPerimeter=0;dashed=1;dashPattern=12 12;" edge="1" parent="1" source="PZ-YgTpOUl17oD9k1CXw-4">
          <mxGeometry relative="1" as="geometry">
            <mxPoint x="470" y="-150" as="targetPoint" />
            <Array as="points">
              <mxPoint x="80" y="-50" />
              <mxPoint x="471" y="-50" />
              <mxPoint x="471" y="-150" />
            </Array>
          </mxGeometry>
        </mxCell>
        <mxCell id="PZ-YgTpOUl17oD9k1CXw-3" style="edgeStyle=orthogonalEdgeStyle;rounded=0;orthogonalLoop=1;jettySize=auto;html=1;exitX=0.5;exitY=1;exitDx=0;exitDy=0;exitPerimeter=0;dashed=1;dashPattern=12 12;" edge="1" parent="1" source="PZ-YgTpOUl17oD9k1CXw-4">
          <mxGeometry relative="1" as="geometry">
            <mxPoint x="114.66666666666652" y="340" as="targetPoint" />
          </mxGeometry>
        </mxCell>
        <mxCell id="PZ-YgTpOUl17oD9k1CXw-4" value="DistanceFilter" style="shape=folder;fontStyle=1;tabWidth=80;tabHeight=30;tabPosition=left;html=1;boundedLbl=1;whiteSpace=wrap;" vertex="1" parent="1">
          <mxGeometry x="40" y="80" width="150" height="80" as="geometry" />
        </mxCell>
        <mxCell id="PZ-YgTpOUl17oD9k1CXw-5" style="edgeStyle=orthogonalEdgeStyle;rounded=0;orthogonalLoop=1;jettySize=auto;html=1;exitX=0.5;exitY=1;exitDx=0;exitDy=0;exitPerimeter=0;dashed=1;dashPattern=12 12;" edge="1" parent="1" source="PZ-YgTpOUl17oD9k1CXw-7">
          <mxGeometry relative="1" as="geometry">
            <mxPoint x="570" y="310" as="targetPoint" />
            <Array as="points">
              <mxPoint x="305" y="240" />
              <mxPoint x="570" y="240" />
            </Array>
          </mxGeometry>
        </mxCell>
        <mxCell id="PZ-YgTpOUl17oD9k1CXw-6" style="edgeStyle=orthogonalEdgeStyle;rounded=0;orthogonalLoop=1;jettySize=auto;html=1;exitX=0;exitY=0;exitDx=40;exitDy=0;exitPerimeter=0;dashed=1;dashPattern=12 12;" edge="1" parent="1" source="PZ-YgTpOUl17oD9k1CXw-7">
          <mxGeometry relative="1" as="geometry">
            <mxPoint x="490" y="-150" as="targetPoint" />
          </mxGeometry>
        </mxCell>
        <mxCell id="PZ-YgTpOUl17oD9k1CXw-7" value="AvgFilter" style="shape=folder;fontStyle=1;tabWidth=80;tabHeight=30;tabPosition=left;html=1;boundedLbl=1;whiteSpace=wrap;" vertex="1" parent="1">
          <mxGeometry x="230" y="80" width="150" height="80" as="geometry" />
        </mxCell>
        <mxCell id="PZ-YgTpOUl17oD9k1CXw-8" style="edgeStyle=orthogonalEdgeStyle;rounded=0;orthogonalLoop=1;jettySize=auto;html=1;exitX=0.5;exitY=1;exitDx=0;exitDy=0;exitPerimeter=0;dashed=1;dashPattern=12 12;" edge="1" parent="1" source="PZ-YgTpOUl17oD9k1CXw-10">
          <mxGeometry relative="1" as="geometry">
            <mxPoint x="620" y="310" as="targetPoint" />
          </mxGeometry>
        </mxCell>
        <mxCell id="PZ-YgTpOUl17oD9k1CXw-9" style="edgeStyle=orthogonalEdgeStyle;rounded=0;orthogonalLoop=1;jettySize=auto;html=1;exitX=0;exitY=0;exitDx=40;exitDy=0;exitPerimeter=0;dashed=1;dashPattern=12 12;" edge="1" parent="1" source="PZ-YgTpOUl17oD9k1CXw-10">
          <mxGeometry relative="1" as="geometry">
            <mxPoint x="500" y="-150" as="targetPoint" />
          </mxGeometry>
        </mxCell>
        <mxCell id="PZ-YgTpOUl17oD9k1CXw-10" value="FastestFilter" style="shape=folder;fontStyle=1;tabWidth=80;tabHeight=30;tabPosition=left;html=1;boundedLbl=1;whiteSpace=wrap;" vertex="1" parent="1">
          <mxGeometry x="460" y="80" width="150" height="80" as="geometry" />
        </mxCell>
        <mxCell id="PZ-YgTpOUl17oD9k1CXw-11" style="edgeStyle=orthogonalEdgeStyle;rounded=0;orthogonalLoop=1;jettySize=auto;html=1;exitX=0.5;exitY=1;exitDx=0;exitDy=0;exitPerimeter=0;strokeColor=none;dashed=1;dashPattern=12 12;" edge="1" parent="1">
          <mxGeometry relative="1" as="geometry">
            <mxPoint x="810" y="300" as="targetPoint" />
            <mxPoint x="765" y="160" as="sourcePoint" />
          </mxGeometry>
        </mxCell>
        <mxCell id="PZ-YgTpOUl17oD9k1CXw-12" style="edgeStyle=orthogonalEdgeStyle;rounded=0;orthogonalLoop=1;jettySize=auto;html=1;exitX=0.5;exitY=1;exitDx=0;exitDy=0;exitPerimeter=0;dashed=1;dashPattern=12 12;" edge="1" parent="1" source="PZ-YgTpOUl17oD9k1CXw-14">
          <mxGeometry relative="1" as="geometry">
            <mxPoint x="645" y="310" as="targetPoint" />
          </mxGeometry>
        </mxCell>
        <mxCell id="PZ-YgTpOUl17oD9k1CXw-13" style="edgeStyle=orthogonalEdgeStyle;rounded=0;orthogonalLoop=1;jettySize=auto;html=1;exitX=0;exitY=0;exitDx=40;exitDy=0;exitPerimeter=0;dashed=1;dashPattern=12 12;" edge="1" parent="1" source="PZ-YgTpOUl17oD9k1CXw-14">
          <mxGeometry relative="1" as="geometry">
            <mxPoint x="1180" y="-70" as="targetPoint" />
          </mxGeometry>
        </mxCell>
        <mxCell id="PZ-YgTpOUl17oD9k1CXw-14" value="InputBoundary" style="shape=folder;fontStyle=1;tabWidth=80;tabHeight=30;tabPosition=left;html=1;boundedLbl=1;whiteSpace=wrap;" vertex="1" parent="1">
          <mxGeometry x="920" y="80" width="150" height="80" as="geometry" />
        </mxCell>
        <mxCell id="PZ-YgTpOUl17oD9k1CXw-15" value="Protocol" style="shape=folder;fontStyle=1;tabWidth=80;tabHeight=30;tabPosition=left;html=1;boundedLbl=1;whiteSpace=wrap;" vertex="1" parent="1">
          <mxGeometry x="1040" y="-200" width="150" height="80" as="geometry" />
        </mxCell>
        <mxCell id="PZ-YgTpOUl17oD9k1CXw-16" value="Middleware" style="shape=folder;fontStyle=1;tabWidth=80;tabHeight=30;tabPosition=left;html=1;boundedLbl=1;whiteSpace=wrap;" vertex="1" parent="1">
          <mxGeometry x="700" y="350" width="150" height="80" as="geometry" />
        </mxCell>
        <mxCell id="PZ-YgTpOUl17oD9k1CXw-17" value="Distance" style="shape=folder;fontStyle=1;tabWidth=80;tabHeight=30;tabPosition=left;html=1;boundedLbl=1;whiteSpace=wrap;" vertex="1" parent="1">
          <mxGeometry x="80" y="350" width="150" height="80" as="geometry" />
        </mxCell>
        <mxCell id="PZ-YgTpOUl17oD9k1CXw-18" value="Typing" style="shape=folder;fontStyle=1;tabWidth=80;tabHeight=30;tabPosition=left;html=1;boundedLbl=1;whiteSpace=wrap;" vertex="1" parent="1">
          <mxGeometry x="430" y="350" width="150" height="80" as="geometry" />
        </mxCell>
        <mxCell id="PZ-YgTpOUl17oD9k1CXw-19" value="connection" style="shape=folder;fontStyle=1;tabWidth=80;tabHeight=30;tabPosition=left;html=1;boundedLbl=1;whiteSpace=wrap;" vertex="1" parent="1">
          <mxGeometry x="1300" y="-200" width="150" height="80" as="geometry" />
        </mxCell>
        <mxCell id="PZ-YgTpOUl17oD9k1CXw-20" style="edgeStyle=orthogonalEdgeStyle;rounded=0;orthogonalLoop=1;jettySize=auto;html=1;exitX=0.5;exitY=1;exitDx=0;exitDy=0;exitPerimeter=0;dashed=1;dashPattern=12 12;" edge="1" parent="1" source="PZ-YgTpOUl17oD9k1CXw-23">
          <mxGeometry relative="1" as="geometry">
            <mxPoint x="820" y="310" as="targetPoint" />
            <Array as="points">
              <mxPoint x="1241" y="280" />
              <mxPoint x="820" y="280" />
            </Array>
          </mxGeometry>
        </mxCell>
        <mxCell id="PZ-YgTpOUl17oD9k1CXw-21" style="edgeStyle=orthogonalEdgeStyle;rounded=0;orthogonalLoop=1;jettySize=auto;html=1;exitX=0;exitY=0;exitDx=40;exitDy=0;exitPerimeter=0;dashed=1;dashPattern=12 12;" edge="1" parent="1" source="PZ-YgTpOUl17oD9k1CXw-23">
          <mxGeometry relative="1" as="geometry">
            <mxPoint x="1206" y="-70" as="targetPoint" />
          </mxGeometry>
        </mxCell>
        <mxCell id="PZ-YgTpOUl17oD9k1CXw-22" style="edgeStyle=orthogonalEdgeStyle;rounded=0;orthogonalLoop=1;jettySize=auto;html=1;exitX=0.5;exitY=1;exitDx=0;exitDy=0;exitPerimeter=0;dashed=1;dashPattern=12 12;" edge="1" parent="1" source="PZ-YgTpOUl17oD9k1CXw-23">
          <mxGeometry relative="1" as="geometry">
            <mxPoint x="740" y="750" as="targetPoint" />
            <Array as="points">
              <mxPoint x="1241" y="750" />
            </Array>
          </mxGeometry>
        </mxCell>
        <mxCell id="PZ-YgTpOUl17oD9k1CXw-23" value="OutputBoundary" style="shape=folder;fontStyle=1;tabWidth=80;tabHeight=30;tabPosition=left;html=1;boundedLbl=1;whiteSpace=wrap;" vertex="1" parent="1">
          <mxGeometry x="1166" y="80" width="150" height="80" as="geometry" />
        </mxCell>
        <mxCell id="PZ-YgTpOUl17oD9k1CXw-24" style="edgeStyle=orthogonalEdgeStyle;rounded=0;orthogonalLoop=1;jettySize=auto;html=1;exitX=0;exitY=0;exitDx=40;exitDy=0;exitPerimeter=0;dashed=1;dashPattern=12 12;" edge="1" parent="1" source="PZ-YgTpOUl17oD9k1CXw-25">
          <mxGeometry relative="1" as="geometry">
            <mxPoint x="1230" y="-70" as="targetPoint" />
          </mxGeometry>
        </mxCell>
        <mxCell id="PZ-YgTpOUl17oD9k1CXw-25" value="Client" style="shape=folder;fontStyle=1;tabWidth=80;tabHeight=30;tabPosition=left;html=1;boundedLbl=1;whiteSpace=wrap;" vertex="1" parent="1">
          <mxGeometry x="1420" y="80" width="150" height="80" as="geometry" />
        </mxCell>
        <mxCell id="PZ-YgTpOUl17oD9k1CXw-26" style="edgeStyle=orthogonalEdgeStyle;rounded=0;orthogonalLoop=1;jettySize=auto;html=1;exitX=0.5;exitY=1;exitDx=0;exitDy=0;exitPerimeter=0;dashed=1;dashPattern=12 12;" edge="1" parent="1" source="PZ-YgTpOUl17oD9k1CXw-27">
          <mxGeometry relative="1" as="geometry">
            <mxPoint x="765.6666666666665" y="310" as="targetPoint" />
          </mxGeometry>
        </mxCell>
        <mxCell id="PZ-YgTpOUl17oD9k1CXw-27" value="Demux" style="shape=folder;fontStyle=1;tabWidth=80;tabHeight=30;tabPosition=left;html=1;boundedLbl=1;whiteSpace=wrap;" vertex="1" parent="1">
          <mxGeometry x="690" y="80" width="150" height="80" as="geometry" />
        </mxCell>
        <mxCell id="PZ-YgTpOUl17oD9k1CXw-28" value="invitation" style="shape=folder;fontStyle=1;tabWidth=80;tabHeight=30;tabPosition=left;html=1;boundedLbl=1;whiteSpace=wrap;" vertex="1" parent="1">
          <mxGeometry x="-180" y="-235" width="150" height="80" as="geometry" />
        </mxCell>
        <mxCell id="PZ-YgTpOUl17oD9k1CXw-29" style="edgeStyle=orthogonalEdgeStyle;rounded=0;orthogonalLoop=1;jettySize=auto;html=1;exitX=0;exitY=0;exitDx=40;exitDy=0;exitPerimeter=0;dashed=1;dashPattern=12 12;" edge="1" parent="1" source="PZ-YgTpOUl17oD9k1CXw-30">
          <mxGeometry relative="1" as="geometry">
            <mxPoint x="490.6666666666665" y="-380" as="targetPoint" />
          </mxGeometry>
        </mxCell>
        <mxCell id="PZ-YgTpOUl17oD9k1CXw-30" value="beater" style="shape=folder;fontStyle=1;tabWidth=80;tabHeight=30;tabPosition=left;html=1;boundedLbl=1;whiteSpace=wrap;" vertex="1" parent="1">
          <mxGeometry x="450" y="-235" width="150" height="80" as="geometry" />
        </mxCell>
        <mxCell id="PZ-YgTpOUl17oD9k1CXw-31" value="" style="rounded=0;whiteSpace=wrap;html=1;dashed=1;dashPattern=12 12;fillColor=none;" vertex="1" parent="1">
          <mxGeometry x="400" y="315" width="450" height="270" as="geometry" />
        </mxCell>
        <mxCell id="PZ-YgTpOUl17oD9k1CXw-32" value="" style="rounded=0;whiteSpace=wrap;html=1;dashed=1;dashPattern=12 12;fillColor=none;" vertex="1" parent="1">
          <mxGeometry x="1016" y="-235" width="450" height="150" as="geometry" />
        </mxCell>
        <mxCell id="PZ-YgTpOUl17oD9k1CXw-33" style="edgeStyle=orthogonalEdgeStyle;rounded=0;orthogonalLoop=1;jettySize=auto;html=1;exitX=0;exitY=0;exitDx=150;exitDy=55;exitPerimeter=0;entryX=0;entryY=0;entryDx=0;entryDy=55;entryPerimeter=0;dashed=1;dashPattern=12 12;" edge="1" parent="1" source="PZ-YgTpOUl17oD9k1CXw-28" target="PZ-YgTpOUl17oD9k1CXw-30">
          <mxGeometry relative="1" as="geometry" />
        </mxCell>
        <mxCell id="PZ-YgTpOUl17oD9k1CXw-34" value="dood" style="shape=folder;fontStyle=1;tabWidth=80;tabHeight=30;tabPosition=left;html=1;boundedLbl=1;whiteSpace=wrap;" vertex="1" parent="1">
          <mxGeometry x="460" y="-470" width="150" height="80" as="geometry" />
        </mxCell>
        <mxCell id="PZ-YgTpOUl17oD9k1CXw-35" style="edgeStyle=orthogonalEdgeStyle;rounded=0;orthogonalLoop=1;jettySize=auto;html=1;exitX=0;exitY=0;exitDx=40;exitDy=0;exitPerimeter=0;dashed=1;dashPattern=12 12;" edge="1" parent="1" source="PZ-YgTpOUl17oD9k1CXw-27">
          <mxGeometry relative="1" as="geometry">
            <mxPoint x="520" y="-150" as="targetPoint" />
          </mxGeometry>
        </mxCell>
        <mxCell id="PZ-YgTpOUl17oD9k1CXw-36" style="edgeStyle=orthogonalEdgeStyle;rounded=0;orthogonalLoop=1;jettySize=auto;html=1;exitX=0;exitY=0;exitDx=40;exitDy=0;exitPerimeter=0;dashed=1;dashPattern=12 12;" edge="1" parent="1" source="PZ-YgTpOUl17oD9k1CXw-37">
          <mxGeometry relative="1" as="geometry">
            <mxPoint x="-140" y="-150" as="targetPoint" />
          </mxGeometry>
        </mxCell>
        <mxCell id="PZ-YgTpOUl17oD9k1CXw-37" value="Heartbeater" style="shape=folder;fontStyle=1;tabWidth=80;tabHeight=30;tabPosition=left;html=1;boundedLbl=1;whiteSpace=wrap;" vertex="1" parent="1">
          <mxGeometry x="-180" y="80" width="150" height="80" as="geometry" />
        </mxCell>
        <mxCell id="PZ-YgTpOUl17oD9k1CXw-38" value="state" style="shape=folder;fontStyle=1;tabWidth=80;tabHeight=30;tabPosition=left;html=1;boundedLbl=1;whiteSpace=wrap;" vertex="1" parent="1">
          <mxGeometry x="580" y="490" width="150" height="80" as="geometry" />
        </mxCell>
        <mxCell id="PZ-YgTpOUl17oD9k1CXw-39" style="edgeStyle=orthogonalEdgeStyle;rounded=0;orthogonalLoop=1;jettySize=auto;html=1;exitX=0.5;exitY=1;exitDx=0;exitDy=0;exitPerimeter=0;entryX=0;entryY=0;entryDx=150;entryDy=55;entryPerimeter=0;dashed=1;dashPattern=12 12;" edge="1" parent="1" source="PZ-YgTpOUl17oD9k1CXw-16" target="PZ-YgTpOUl17oD9k1CXw-38">
          <mxGeometry relative="1" as="geometry" />
        </mxCell>
        <mxCell id="PZ-YgTpOUl17oD9k1CXw-40" value="duplicates" style="shape=folder;fontStyle=1;tabWidth=80;tabHeight=30;tabPosition=left;html=1;boundedLbl=1;whiteSpace=wrap;" vertex="1" parent="1">
          <mxGeometry x="580" y="680" width="150" height="80" as="geometry" />
        </mxCell>
        <mxCell id="PZ-YgTpOUl17oD9k1CXw-41" value="utils" style="shape=folder;fontStyle=1;tabWidth=80;tabHeight=30;tabPosition=left;html=1;boundedLbl=1;whiteSpace=wrap;" vertex="1" parent="1">
          <mxGeometry x="580" y="840" width="150" height="80" as="geometry" />
        </mxCell>
        <mxCell id="PZ-YgTpOUl17oD9k1CXw-42" style="edgeStyle=orthogonalEdgeStyle;rounded=0;orthogonalLoop=1;jettySize=auto;html=1;exitX=0.5;exitY=1;exitDx=0;exitDy=0;exitPerimeter=0;entryX=0;entryY=0;entryDx=0;entryDy=55;entryPerimeter=0;dashed=1;dashPattern=12 12;" edge="1" parent="1" source="PZ-YgTpOUl17oD9k1CXw-7" target="PZ-YgTpOUl17oD9k1CXw-40">
          <mxGeometry relative="1" as="geometry" />
        </mxCell>
        <mxCell id="PZ-YgTpOUl17oD9k1CXw-43" style="edgeStyle=orthogonalEdgeStyle;rounded=0;orthogonalLoop=1;jettySize=auto;html=1;exitX=0.5;exitY=1;exitDx=0;exitDy=0;exitPerimeter=0;dashed=1;dashPattern=12 12;" edge="1" parent="1" source="PZ-YgTpOUl17oD9k1CXw-27">
          <mxGeometry relative="1" as="geometry">
            <mxPoint x="740" y="735" as="targetPoint" />
            <Array as="points">
              <mxPoint x="765" y="190" />
              <mxPoint x="910" y="190" />
              <mxPoint x="910" y="735" />
            </Array>
          </mxGeometry>
        </mxCell>
        <mxCell id="PZ-YgTpOUl17oD9k1CXw-44" style="edgeStyle=orthogonalEdgeStyle;rounded=0;orthogonalLoop=1;jettySize=auto;html=1;exitX=0.5;exitY=1;exitDx=0;exitDy=0;exitPerimeter=0;entryX=0;entryY=0;entryDx=0;entryDy=55;entryPerimeter=0;dashed=1;dashPattern=12 12;" edge="1" parent="1" source="PZ-YgTpOUl17oD9k1CXw-37" target="PZ-YgTpOUl17oD9k1CXw-41">
          <mxGeometry relative="1" as="geometry" />
        </mxCell>
        <mxCell id="PZ-YgTpOUl17oD9k1CXw-45" style="edgeStyle=orthogonalEdgeStyle;rounded=0;orthogonalLoop=1;jettySize=auto;html=1;exitX=0.5;exitY=1;exitDx=0;exitDy=0;exitPerimeter=0;entryX=0;entryY=0;entryDx=0;entryDy=55;entryPerimeter=0;dashed=1;dashPattern=12 12;" edge="1" parent="1" source="PZ-YgTpOUl17oD9k1CXw-4" target="PZ-YgTpOUl17oD9k1CXw-41">
          <mxGeometry relative="1" as="geometry">
            <Array as="points">
              <mxPoint x="115" y="260" />
              <mxPoint y="260" />
              <mxPoint y="895" />
            </Array>
          </mxGeometry>
        </mxCell>
        <mxCell id="PZ-YgTpOUl17oD9k1CXw-46" style="edgeStyle=orthogonalEdgeStyle;rounded=0;orthogonalLoop=1;jettySize=auto;html=1;exitX=0.5;exitY=1;exitDx=0;exitDy=0;exitPerimeter=0;entryX=0;entryY=0;entryDx=0;entryDy=55;entryPerimeter=0;dashed=1;dashPattern=12 12;" edge="1" parent="1" source="PZ-YgTpOUl17oD9k1CXw-7" target="PZ-YgTpOUl17oD9k1CXw-41">
          <mxGeometry relative="1" as="geometry" />
        </mxCell>
        <mxCell id="PZ-YgTpOUl17oD9k1CXw-47" style="edgeStyle=orthogonalEdgeStyle;rounded=0;orthogonalLoop=1;jettySize=auto;html=1;exitX=0.5;exitY=1;exitDx=0;exitDy=0;exitPerimeter=0;entryX=0;entryY=0;entryDx=0;entryDy=55;entryPerimeter=0;dashed=1;dashPattern=12 12;" edge="1" parent="1" source="PZ-YgTpOUl17oD9k1CXw-10" target="PZ-YgTpOUl17oD9k1CXw-41">
          <mxGeometry relative="1" as="geometry">
            <Array as="points">
              <mxPoint x="535" y="200" />
              <mxPoint x="370" y="200" />
              <mxPoint x="370" y="895" />
            </Array>
          </mxGeometry>
        </mxCell>
        <mxCell id="PZ-YgTpOUl17oD9k1CXw-48" style="edgeStyle=orthogonalEdgeStyle;rounded=0;orthogonalLoop=1;jettySize=auto;html=1;exitX=0.5;exitY=1;exitDx=0;exitDy=0;exitPerimeter=0;entryX=0;entryY=0;entryDx=150;entryDy=55;entryPerimeter=0;dashed=1;dashPattern=12 12;" edge="1" parent="1" source="PZ-YgTpOUl17oD9k1CXw-27" target="PZ-YgTpOUl17oD9k1CXw-41">
          <mxGeometry relative="1" as="geometry">
            <Array as="points">
              <mxPoint x="765" y="190" />
              <mxPoint x="910" y="190" />
              <mxPoint x="910" y="895" />
            </Array>
          </mxGeometry>
        </mxCell>
        <mxCell id="PZ-YgTpOUl17oD9k1CXw-49" style="edgeStyle=orthogonalEdgeStyle;rounded=0;orthogonalLoop=1;jettySize=auto;html=1;exitX=0.5;exitY=1;exitDx=0;exitDy=0;exitPerimeter=0;entryX=0;entryY=0;entryDx=150;entryDy=55;entryPerimeter=0;dashed=1;dashPattern=12 12;" edge="1" parent="1" source="PZ-YgTpOUl17oD9k1CXw-14" target="PZ-YgTpOUl17oD9k1CXw-41">
          <mxGeometry relative="1" as="geometry" />
        </mxCell>
        <mxCell id="PZ-YgTpOUl17oD9k1CXw-50" style="edgeStyle=orthogonalEdgeStyle;rounded=0;orthogonalLoop=1;jettySize=auto;html=1;exitX=0.5;exitY=1;exitDx=0;exitDy=0;exitPerimeter=0;entryX=0;entryY=0;entryDx=150;entryDy=55;entryPerimeter=0;dashed=1;dashPattern=12 12;" edge="1" parent="1" source="PZ-YgTpOUl17oD9k1CXw-23" target="PZ-YgTpOUl17oD9k1CXw-41">
          <mxGeometry relative="1" as="geometry" />
        </mxCell>
        <mxCell id="PZ-YgTpOUl17oD9k1CXw-51" style="edgeStyle=orthogonalEdgeStyle;rounded=0;orthogonalLoop=1;jettySize=auto;html=1;exitX=0.5;exitY=1;exitDx=0;exitDy=0;exitPerimeter=0;entryX=0;entryY=0;entryDx=150;entryDy=55;entryPerimeter=0;dashed=1;dashPattern=12 12;" edge="1" parent="1" source="PZ-YgTpOUl17oD9k1CXw-25" target="PZ-YgTpOUl17oD9k1CXw-41">
          <mxGeometry relative="1" as="geometry" />
        </mxCell>
        <mxCell id="PZ-YgTpOUl17oD9k1CXw-52" value="" style="rounded=0;whiteSpace=wrap;html=1;fillColor=none;" vertex="1" parent="1">
          <mxGeometry x="-200" y="-490" width="1800" height="1440" as="geometry" />
        </mxCell>
      </root>
    </mxGraphModel>
  </diagram>
</mxfile>
